<svg xmlns="http://www.w3.org/2000/svg" viewBox="0 0 320 320" shape-rendering="crispEdges">
  <rect width="320" height="320" fill="none"/>

  <!-- hat brim -->
  <rect x="72" y="88" width="176" height="16" fill="#23293a"/>
  <rect x="64" y="104" width="192" height="16" fill="#5a4a87"/>
  <rect x="56" y="120" width="208" height="8" fill="#23293a"/>

  <!-- hat cone -->
  <rect x="120" y="40" width="80" height="16" fill="#23293a"/>
  <rect x="104" y="56" width="112" height="16" fill="#5a4a87"/>
  <rect x="88" y="72" width="136" height="16" fill="#5a4a87"/>
  <rect x="168" y="56" width="16" height="16" fill="#4b3e78"/>
  <rect x="184" y="72" width="16" height="16" fill="#4b3e78"/>

  <!-- hat band -->
  <rect x="88" y="88" width="136" height="16" fill="#2a3143"/>
  <rect x="104" y="88" width="24" height="16" fill="#df704a"/>
  <rect x="144" y="88" width="24" height="16" fill="#df704a"/>
  <rect x="184" y="88" width="24" height="16" fill="#df704a"/>

  <!-- ears -->
  <rect x="80" y="112" width="16" height="16" fill="#23293a"/>
  <rect x="224" y="112" width="16" height="16" fill="#23293a"/>

  <!-- head -->
  <rect x="88" y="120" width="144" height="88" fill="#2f3440"/>
  <rect x="88" y="120" width="8" height="88" fill="#23293a"/>
  <rect x="224" y="120" width="8" height="88" fill="#23293a"/>
  <rect x="96" y="192" width="128" height="16" fill="#3a3f4b"/>

  <!-- eyes -->
  <rect x="112" y="144" width="32" height="24" fill="#f7c56c"/>
  <rect x="176" y="144" width="32" height="24" fill="#f7c56c"/>
  <rect x="124" y="144" width="8" height="24" fill="#23293a"/>
  <rect x="188" y="144" width="8" height="24" fill="#23293a"/>

  <!-- nose -->
  <rect x="156" y="176" width="8" height="8" fill="#23293a"/>

  <!-- whiskers -->
  <rect x="80" y="160" width="16" height="4" fill="#23293a"/>
  <rect x="80" y="176" width="16" height="4" fill="#23293a"/>
  <rect x="224" y="160" width="16" height="4" fill="#23293a"/>
  <rect x="224" y="176" width="16" height="4" fill="#23293a"/>

  <!-- bow -->
  <rect x="128" y="208" width="24" height="16" fill="#df704a"/>
  <rect x="168" y="208" width="24" height="16" fill="#df704a"/>
  <rect x="152" y="212" width="16" height="8" fill="#bd5f3e"/>

  <!-- body -->
  <rect x="104" y="224" width="120" height="72" fill="#3a3f49"/>
  <rect x="96" y="224" width="8" height="72" fill="#23293a"/>
  <rect x="224" y="224" width="8" height="72" fill="#23293a"/>
  <rect x="128" y="240" width="16" height="56" fill="#2c3340"/>
  <rect x="176" y="240" width="16" height="56" fill="#2c3340"/>

  <!-- tail -->
  <rect x="232" y="232" width="24" height="16" fill="#23293a"/>
  <rect x="248" y="248" width="24" height="16" fill="#2f3440"/>
  <rect x="248" y="264" width="24" height="16" fill="#2f3440"/>
  <rect x="240" y="280" width="24" height="16" fill="#2f3440"/>

  <!-- feet -->
  <rect x="112" y="296" width="32" height="8" fill="#23293a"/>
  <rect x="176" y="296" width="40" height="8" fill="#23293a"/>
</svg>
